<?xml version="1.0" encoding="iso-8859-1"?>
<!-- Generator: Adobe Illustrator 19.0.0, SVG Export Plug-In . SVG Version: 6.00 Build 0)  -->
<svg version="1.1" id="Capa_1" xmlns="http://www.w3.org/2000/svg" xmlns:xlink="http://www.w3.org/1999/xlink" x="0px" y="0px"
	 viewBox="0 0 512.001 512.001" style="enable-background:new 0 0 512.001 512.001;" xml:space="preserve">
<g>
	<path style="fill:#FDD7AD;" d="M363.009,464.468l-0.683,0.512l-13.653,10.496l-9.557,7.339c-4.766,3.603-9.952,6.612-15.445,8.96
		c-3.565,1.516-7.246,2.743-11.008,3.669l-5.547,1.365l-23.467,5.803l-16.896,4.181c-0.094-0.011-0.188,0.02-0.256,0.085
		c-10.641,2.469-21.815-0.468-29.867-7.851l-14.336-13.909l-90.112-87.381c-3.635-3.395-8.423-5.286-13.397-5.291H81.238
		c-3.409,0.045-6.696-1.272-9.13-3.659c-2.435-2.387-3.817-5.646-3.84-9.056V271.273c0.035-3.821,1.755-7.432,4.7-9.867
		c2.945-2.435,6.815-3.446,10.575-2.762l45.227,8.107c7.094,1.307,14.348,1.509,21.504,0.597l40.96-5.035l-10.411,17.237
		c-5.121,8.322-2.963,19.184,4.949,24.917c3.363,2.478,7.428,3.823,11.605,3.84c4.371,0.023,8.617-1.453,12.032-4.181l20.736-16.299
		h24.917c4.772-0.013,9.384,1.716,12.971,4.864l50.432,44.117c1.507,1.331,2.802,2.885,3.84,4.608l48.725,81.664
		c0.921,1.514,1.693,3.115,2.304,4.779C378.509,440.996,374.285,455.971,363.009,464.468z"/>
	<g>
		<path style="fill:#AF8066;" d="M443.734,308.137v81.493c-0.031,7.883-4.867,14.95-12.203,17.835l-58.197,20.395
			c-0.611-1.664-1.383-3.264-2.304-4.779l-48.725-81.664c-1.038-1.723-2.333-3.277-3.84-4.608l-50.432-44.117
			c-3.586-3.148-8.199-4.877-12.971-4.864h-24.917l-20.736,16.299c-3.415,2.728-7.661,4.204-12.032,4.181
			c-4.178-0.017-8.242-1.362-11.605-3.84c-7.913-5.733-10.07-16.595-4.949-24.917l10.411-17.237l7.253-10.581
			c3.609-5.365,9.662-8.568,16.128-8.533h56.491c15.448-0.021,30.558,4.521,43.435,13.056l17.408,11.605
			c1.167,0.552,2.28,1.209,3.328,1.963l20.139,13.909c10.949,10.711,26.048,16.077,41.301,14.677l32.939-2.901
			c3.577-0.34,7.132,0.831,9.807,3.23C442.135,301.137,443.685,304.545,443.734,308.137z"/>
		<path style="fill:#AF8066;" d="M222.294,485.118l-0.256,0.256l-0.768,0.341c-11.055,4.006-23.134,4.187-34.304,0.512
			l-48.811-16.043c-7.623-2.482-14.573-6.687-20.309-12.288l-34.645-34.133c-5.255-6.576-7.004-15.287-4.693-23.381l2.731-7.936
			h37.547c4.974,0.005,9.762,1.895,13.397,5.291L222.294,485.118z"/>
		<path style="fill:#AF8066;" d="M362.326,464.98l-13.653,10.496l-54.613-87.467c-2.498-4.006-1.275-9.278,2.731-11.776
			c4.006-2.498,9.278-1.275,11.776,2.731L362.326,464.98z"/>
		<path style="fill:#AF8066;" d="M323.67,491.774c-3.565,1.516-7.246,2.743-11.008,3.669l-5.547,1.365l-37.547-61.44
			c-2.4-4.033-1.106-9.247,2.901-11.691c1.921-1.187,4.237-1.558,6.432-1.029s4.089,1.913,5.258,3.845l38.827,63.744
			C323.32,490.697,323.552,491.22,323.67,491.774z"/>
		<path style="fill:#AF8066;" d="M283.649,502.612l-16.896,4.181c-0.094-0.011-0.188,0.02-0.256,0.085l-30.379-41.899
			c-1.315-1.832-1.847-4.113-1.479-6.338c0.368-2.225,1.606-4.212,3.442-5.524c1.813-1.348,4.094-1.909,6.325-1.556
			c2.232,0.353,4.227,1.591,5.536,3.433l32.341,44.629C282.927,500.523,283.391,501.538,283.649,502.612z"/>
	</g>
	<g>
		<path style="fill:#2C3E50;" d="M503.468,46.932c-2.263,0.001-4.434-0.898-6.035-2.499c-1.6-1.6-2.499-3.771-2.499-6.035V21.332
			h-17.067c-4.713,0-8.533-3.821-8.533-8.533s3.821-8.533,8.533-8.533h25.6c2.263-0.001,4.434,0.898,6.035,2.499
			c1.6,1.6,2.499,3.771,2.499,6.035v25.6c0.001,2.263-0.898,4.434-2.499,6.035C507.902,46.034,505.731,46.932,503.468,46.932z"/>
		<path style="fill:#2C3E50;" d="M214.359,182.44c-3.451-0.001-6.562-2.08-7.882-5.268c-1.32-3.188-0.591-6.858,1.849-9.298
			l91.816-91.817c3.332-3.332,8.734-3.332,12.067,0c3.332,3.332,3.332,8.735,0,12.067l-91.817,91.817
			C218.794,181.543,216.623,182.443,214.359,182.44z"/>
		<path style="fill:#2C3E50;" d="M402.093,122.707c-3.451-0.001-6.562-2.08-7.882-5.268c-1.32-3.188-0.591-6.858,1.849-9.298
			L497.435,6.765c3.341-3.281,8.701-3.256,12.012,0.054c3.311,3.311,3.335,8.671,0.054,12.012L408.126,120.207
			C406.528,121.81,404.356,122.71,402.093,122.707z"/>
		<path style="fill:#2C3E50;" d="M367.193,121.598c-2.463,0.002-4.806-1.061-6.425-2.917l-26.117-29.867
			c-2.018-2.294-2.655-5.492-1.671-8.384c0.984-2.892,3.438-5.038,6.436-5.626c2.998-0.588,6.082,0.471,8.085,2.777l26.117,29.867
			c2.203,2.52,2.73,6.096,1.346,9.145C373.579,119.641,370.54,121.599,367.193,121.598z"/>
		<path style="fill:#2C3E50;" d="M8.534,209.065c-3.519,0.001-6.677-2.158-7.953-5.438s-0.408-7.006,2.187-9.383l83.541-76.629
			c3.473-3.185,8.869-2.952,12.054,0.521c3.185,3.473,2.952,8.869-0.521,12.054l-83.541,76.629
			C12.73,208.268,10.671,209.07,8.534,209.065z"/>
		<path style="fill:#2C3E50;" d="M178.176,182.44c-2.264,0.003-4.435-0.897-6.033-2.5l-49.15-49.15
			c-3.332-3.332-3.332-8.735,0-12.067c3.332-3.332,8.735-3.332,12.067,0l49.15,49.15c2.44,2.44,3.169,6.11,1.849,9.298
			C184.738,180.36,181.627,182.439,178.176,182.44L178.176,182.44z"/>
	</g>
	<circle style="fill:#F0C419;" cx="110.934" cy="106.665" r="25.6"/>
	<circle style="fill:#DF4D60;" cx="196.268" cy="191.998" r="25.6"/>
	<circle style="fill:#2FA8CC;" cx="324.268" cy="63.998" r="25.6"/>
	<circle style="fill:#24AE5F;" cx="384.001" cy="132.265" r="25.6"/>
</g>
<g>
</g>
<g>
</g>
<g>
</g>
<g>
</g>
<g>
</g>
<g>
</g>
<g>
</g>
<g>
</g>
<g>
</g>
<g>
</g>
<g>
</g>
<g>
</g>
<g>
</g>
<g>
</g>
<g>
</g>
</svg>
