<?xml version="1.0" encoding="iso-8859-1"?>
<!-- Generator: Adobe Illustrator 19.0.0, SVG Export Plug-In . SVG Version: 6.00 Build 0)  -->
<svg version="1.1" id="Capa_1" xmlns="http://www.w3.org/2000/svg" xmlns:xlink="http://www.w3.org/1999/xlink" x="0px" y="0px"
	 viewBox="0 0 512 512" style="enable-background:new 0 0 512 512;" xml:space="preserve">
<g>
	<g>
		<path style="fill:#2FA8CC;" d="M256,112.814c-2.302,0.001-4.509-0.913-6.137-2.541c-1.628-1.628-2.542-3.835-2.541-6.137V8.678
			C247.322,3.885,251.207,0,256,0c4.793,0,8.678,3.885,8.678,8.678v95.458c0.001,2.302-0.914,4.509-2.541,6.137
			C260.509,111.9,258.302,112.814,256,112.814z"/>
		<path style="fill:#2FA8CC;" d="M282.034,43.39c-2.302,0.003-4.51-0.912-6.135-2.543L256,20.949l-19.899,19.898
			c-3.397,3.336-8.848,3.312-12.215-0.055c-3.367-3.367-3.392-8.818-0.055-12.215l26.034-26.034C251.492,0.915,253.699,0,256,0
			c2.301,0,4.509,0.915,6.136,2.542l26.034,26.034c2.481,2.482,3.223,6.214,1.88,9.456C288.707,41.275,285.543,43.389,282.034,43.39
			z"/>
		<path style="fill:#2FA8CC;" d="M82.441,208.271c-2.302,0.001-4.509-0.913-6.137-2.541c-1.628-1.628-2.542-3.835-2.541-6.137
			v-95.458c0-4.793,3.885-8.678,8.678-8.678c4.793,0,8.678,3.885,8.678,8.678v95.458c0.001,2.302-0.913,4.509-2.541,6.137
			C86.95,207.358,84.742,208.272,82.441,208.271z"/>
		<path style="fill:#2FA8CC;" d="M108.475,138.847c-2.302,0.003-4.51-0.912-6.135-2.543l-19.899-19.898l-19.899,19.898
			c-3.397,3.336-8.848,3.312-12.215-0.055c-3.367-3.367-3.392-8.818-0.055-12.215L76.305,98c1.627-1.628,3.834-2.542,6.136-2.542
			c2.301,0,4.509,0.915,6.136,2.542l26.034,26.034c2.481,2.482,3.223,6.214,1.88,9.456
			C115.148,136.733,111.984,138.847,108.475,138.847z"/>
	</g>
	<path style="fill:#556080;" d="M73.763,399.186c33.549,0,60.746,27.197,60.746,60.746V512H21.695c-4.793,0-8.678-3.885-8.678-8.678
		v-43.39C13.017,426.383,40.214,399.186,73.763,399.186z"/>
	<path style="fill:#8697CB;" d="M195.254,399.186c33.549,0,60.746,27.197,60.746,60.746V512H134.508v-52.068
		C134.508,426.383,161.705,399.186,195.254,399.186z"/>
	<path style="fill:#556080;" d="M316.746,399.186c33.549,0,60.746,27.197,60.746,60.746V512H256v-52.068
		C256,426.383,283.197,399.186,316.746,399.186z"/>
	<path style="fill:#8697CB;" d="M438.237,399.186c33.549,0,60.746,27.197,60.746,60.746v43.39c0,4.793-3.885,8.678-8.678,8.678
		H377.492v-52.068C377.492,426.383,404.688,399.186,438.237,399.186z"/>
	<path style="fill:#CBB292;" d="M438.237,303.729c-3.132,0.013-6.255,0.308-9.334,0.881l0.049-0.013
		c-2.081-13.919-9.722-26.398-21.173-34.58c-11.451-8.182-25.733-11.366-39.575-8.823c-2.084-13.916-9.726-26.391-21.176-34.57
		s-25.73-11.362-39.569-8.82c-3.857-25.441-25.726-44.244-51.457-44.244s-47.6,18.804-51.457,44.244
		c-13.84-2.542-28.119,0.641-39.57,8.82s-19.092,20.654-21.176,34.57c-13.842-2.542-28.124,0.642-39.576,8.823
		c-11.452,8.182-19.092,20.66-21.174,34.58l0.049,0.013c-20.902-3.828-42.033,5.434-53.383,23.398
		c-11.35,17.965-10.641,41.025,1.792,58.258c12.433,17.233,34.093,25.179,54.72,20.073c20.628-5.105,36.081-22.237,39.04-43.28
		c-0.028,0.177-0.012,0.37-0.042,0.546c6.136,1.157,12.435,1.157,18.571,0c-0.03-0.176-0.015-0.369-0.042-0.546
		c3.591,25.689,25.564,44.804,51.503,44.804s47.911-19.115,51.503-44.804c-0.028,0.177-0.012,0.37-0.042,0.546
		c6.136,1.157,12.435,1.157,18.571,0c-0.03-0.176-0.015-0.369-0.042-0.546c3.591,25.689,25.564,44.804,51.503,44.804
		s47.911-19.115,51.503-44.804c-0.028,0.177-0.012,0.37-0.042,0.546c6.136,1.157,12.435,1.157,18.571,0
		c-0.03-0.176-0.015-0.369-0.042-0.546c3.894,27.524,28.73,47.128,56.406,44.523c27.675-2.605,48.418-26.5,47.107-54.267
		C488.936,325.55,466.035,303.715,438.237,303.729z M92.158,307.136c-0.21-0.079-0.422-0.155-0.633-0.232L92.158,307.136z
		 M100.248,311.026c-0.154-0.092-0.304-0.189-0.459-0.279C99.945,310.837,100.094,310.934,100.248,311.026z M118.454,329.18
		c0.123,0.207,0.253,0.407,0.373,0.615C118.707,329.587,118.577,329.386,118.454,329.18L118.454,329.18z M122.346,337.189
		c0.129,0.335,0.247,0.67,0.369,1.008C122.594,337.859,122.474,337.522,122.346,337.189L122.346,337.189z M124.897,346.115
		c0.062,0.328,0.095,0.663,0.151,0.994C124.993,346.779,124.958,346.442,124.897,346.115L124.897,346.115z M359.733,263.531
		c1.708-0.579,3.446-1.068,5.205-1.465C363.178,262.464,361.441,262.953,359.733,263.531L359.733,263.531z M368.032,347.109
		c-0.056-0.33-0.09-0.666-0.151-0.994C367.942,346.443,367.976,346.778,368.032,347.109L368.032,347.109z M365.699,338.197
		c-0.121-0.337-0.241-0.674-0.369-1.008C365.458,337.523,365.577,337.859,365.699,338.197L365.699,338.197z M361.811,329.795
		c-0.12-0.208-0.251-0.409-0.373-0.615C361.56,329.387,361.69,329.587,361.811,329.795L361.811,329.795z M351.822,267.232
		c1.489-0.849,3.052-1.554,4.629-2.255C354.878,265.679,353.308,266.383,351.822,267.232L351.822,267.232z M348.818,269.158
		c-1.414,0.941-2.799,1.917-4.112,2.987C346.021,271.073,347.4,270.1,348.818,269.158L348.818,269.158z M342.039,274.499
		c-1.238,1.158-2.416,2.375-3.534,3.649C339.627,276.872,340.798,275.659,342.039,274.499L342.039,274.499z M328.116,296.05
		c-0.939,2.784-1.637,5.643-2.085,8.546l0.049,0.013c-0.292-0.053-0.591-0.087-0.885-0.135c0.274,0.05,0.565,0.066,0.836,0.121
		C326.48,301.693,327.178,298.834,328.116,296.05L328.116,296.05z M336.244,280.857c-1.052,1.371-1.997,2.819-2.91,4.292
		C334.231,283.671,335.203,282.238,336.244,280.857L336.244,280.857z M331.56,288.092c-0.86,1.675-1.628,3.395-2.3,5.154
		C329.932,291.487,330.699,289.767,331.56,288.092L331.56,288.092z M343.232,311.026c-0.154-0.092-0.304-0.189-0.459-0.279
		C342.928,310.837,343.077,310.934,343.232,311.026L343.232,311.026z M335.142,307.136c-0.21-0.08-0.422-0.155-0.633-0.232
		L335.142,307.136z M291.076,223.842c1.489-0.849,3.052-1.554,4.629-2.255C294.132,222.289,292.563,222.994,291.076,223.842
		L291.076,223.842z M294.987,278.148c-1.12-1.273-2.298-2.489-3.534-3.649C292.694,275.659,293.864,276.872,294.987,278.148
		L294.987,278.148z M265.289,261.194c0.449-2.898,1.146-5.753,2.082-8.533C266.434,255.44,265.737,258.295,265.289,261.194z
		 M272.054,329.18c-0.123,0.206-0.253,0.407-0.373,0.615C271.802,329.587,271.931,329.387,272.054,329.18z M268.162,337.189
		c-0.128,0.334-0.248,0.671-0.369,1.008C267.915,337.859,268.034,337.523,268.162,337.189L268.162,337.189z M265.611,346.115
		c-0.061,0.327-0.095,0.664-0.151,0.994C265.516,346.778,265.549,346.443,265.611,346.115L265.611,346.115z M268.554,262.066
		c1.759,0.397,3.497,0.886,5.205,1.465C272.05,262.953,270.313,262.464,268.554,262.066L268.554,262.066z M277.041,264.977
		c1.577,0.701,3.14,1.406,4.629,2.255C280.183,266.383,278.613,265.679,277.041,264.977z M305.376,296.05
		c0.938,2.784,1.635,5.643,2.085,8.546c0.272-0.056,0.562-0.072,0.836-0.121c-0.294,0.048-0.593,0.082-0.885,0.135l0.049-0.014
		C307.012,301.693,306.314,298.834,305.376,296.05z M298.984,306.904c-0.212,0.077-0.423,0.153-0.633,0.232L298.984,306.904z
		 M290.719,310.747c-0.155,0.089-0.305,0.187-0.459,0.279C290.414,310.934,290.564,310.837,290.719,310.747z M284.674,269.158
		c1.417,0.942,2.797,1.915,4.112,2.987C287.473,271.075,286.087,270.099,284.674,269.158z M297.248,280.857
		c1.041,1.381,2.013,2.814,2.91,4.292C299.245,283.676,298.3,282.228,297.248,280.857L297.248,280.857z M301.932,288.092
		c0.86,1.675,1.628,3.395,2.3,5.154C303.56,291.487,302.792,289.767,301.932,288.092z M298.987,220.141
		c1.708-0.579,3.446-1.068,5.205-1.465C302.433,219.074,300.695,219.563,298.987,220.141L298.987,220.141z M288.072,225.768
		c-1.414,0.941-2.799,1.917-4.112,2.987C285.275,227.683,286.655,226.71,288.072,225.768L288.072,225.768z M281.293,231.109
		c-1.238,1.158-2.416,2.375-3.534,3.649C278.881,233.482,280.052,232.27,281.293,231.109L281.293,231.109z M268.514,249.856
		c0.672-1.759,1.44-3.479,2.299-5.154C269.954,246.377,269.186,248.097,268.514,249.856z M272.587,241.759
		c0.898-1.478,1.869-2.911,2.911-4.292C274.446,238.838,273.501,240.286,272.587,241.759z M220.547,274.499
		c-1.238,1.158-2.416,2.375-3.534,3.649C218.136,276.872,219.306,275.659,220.547,274.499L220.547,274.499z M216.295,221.588
		c1.577,0.701,3.14,1.406,4.629,2.255C219.437,222.994,217.868,222.289,216.295,221.588L216.295,221.588z M246.54,347.109
		c-0.056-0.33-0.09-0.666-0.151-0.994C246.451,346.443,246.484,346.778,246.54,347.109L246.54,347.109z M244.206,338.197
		c-0.121-0.337-0.241-0.674-0.369-1.008C243.966,337.523,244.085,337.859,244.206,338.197L244.206,338.197z M240.319,329.795
		c-0.12-0.208-0.251-0.409-0.373-0.615C240.069,329.387,240.198,329.587,240.319,329.795L240.319,329.795z M230.33,267.232
		c1.489-0.849,3.052-1.554,4.629-2.255C233.387,265.679,231.817,266.383,230.33,267.232L230.33,267.232z M238.241,263.532
		c1.708-0.579,3.446-1.068,5.205-1.465C241.687,262.464,239.949,262.953,238.241,263.532L238.241,263.532z M246.711,261.194
		c-0.448-2.899-1.145-5.753-2.082-8.533C245.565,255.44,246.262,258.295,246.711,261.194z M230.707,231.109
		c1.241,1.161,2.412,2.373,3.534,3.649C233.121,233.486,231.943,232.269,230.707,231.109L230.707,231.109z M236.502,237.467
		c1.041,1.381,2.013,2.814,2.911,4.292C238.499,240.286,237.554,238.838,236.502,237.467L236.502,237.467z M241.186,244.702
		c0.86,1.675,1.627,3.395,2.299,5.154C242.814,248.097,242.046,246.377,241.186,244.702L241.186,244.702z M227.326,269.158
		c-1.414,0.941-2.799,1.917-4.112,2.987C224.53,271.073,225.909,270.1,227.326,269.158z M223.928,225.768
		c1.417,0.942,2.797,1.915,4.112,2.987C226.727,227.685,225.342,226.709,223.928,225.768z M213.013,220.141
		c-1.708-0.579-3.446-1.068-5.205-1.465C209.568,219.074,211.305,219.563,213.013,220.141z M206.624,296.05
		c-0.939,2.784-1.636,5.643-2.085,8.546l0.049,0.013c-0.292-0.053-0.591-0.087-0.885-0.135c0.274,0.05,0.565,0.066,0.836,0.121
		C204.989,301.693,205.686,298.834,206.624,296.05z M214.752,280.857c-1.052,1.371-1.997,2.819-2.911,4.292
		C212.74,283.671,213.711,282.238,214.752,280.857z M210.068,288.092c-0.86,1.675-1.627,3.395-2.299,5.154
		C208.44,291.487,209.208,289.767,210.068,288.092L210.068,288.092z M221.74,311.026c-0.154-0.092-0.304-0.189-0.459-0.279
		C221.436,310.837,221.586,310.934,221.74,311.026L221.74,311.026z M213.65,307.136c-0.21-0.079-0.422-0.155-0.633-0.232
		L213.65,307.136z M173.495,278.148c-1.12-1.273-2.298-2.489-3.534-3.649C171.202,275.659,172.373,276.872,173.495,278.148
		L173.495,278.148z M185.969,304.597c0.272-0.056,0.562-0.072,0.836-0.121c-0.294,0.048-0.593,0.082-0.885,0.135L185.969,304.597
		c-0.448-2.903-1.146-5.763-2.085-8.546C184.822,298.834,185.52,301.694,185.969,304.597z M182.74,293.246
		c-0.672-1.759-1.44-3.479-2.299-5.154C181.3,289.767,182.068,291.487,182.74,293.246L182.74,293.246z M178.667,285.149
		c-0.913-1.473-1.859-2.921-2.911-4.292C176.798,282.239,177.769,283.671,178.667,285.149L178.667,285.149z M177.492,306.904
		c-0.212,0.077-0.423,0.153-0.633,0.232L177.492,306.904z M169.227,310.748c-0.155,0.089-0.305,0.187-0.459,0.279
		C168.923,310.934,169.072,310.837,169.227,310.748L169.227,310.748z M155.549,264.978c1.577,0.701,3.14,1.406,4.629,2.255
		C158.692,266.383,157.122,265.679,155.549,264.978L155.549,264.978z M163.182,269.158c1.417,0.942,2.797,1.915,4.112,2.987
		C165.981,271.075,164.596,270.099,163.182,269.158L163.182,269.158z M152.268,263.532c-1.708-0.579-3.446-1.068-5.205-1.465
		C148.822,262.464,150.559,262.953,152.268,263.532L152.268,263.532z M150.563,329.181c-0.123,0.206-0.253,0.407-0.373,0.615
		C150.31,329.587,150.44,329.387,150.563,329.181L150.563,329.181z M146.671,337.189c-0.128,0.334-0.248,0.671-0.369,1.008
		C146.424,337.859,146.542,337.523,146.671,337.189L146.671,337.189z M144.12,346.115c-0.061,0.327-0.095,0.664-0.151,0.994
		C144.024,346.778,144.058,346.443,144.12,346.115L144.12,346.115z M190.16,303.986c1.666-0.165,3.364-0.257,5.094-0.257
		c1.73,0,3.428,0.093,5.094,0.257c-1.677-0.163-3.374-0.257-5.094-0.257C193.534,303.729,191.837,303.823,190.16,303.986z
		 M246.971,261.169c5.969-1.107,12.09-1.107,18.058,0C259.06,260.062,252.939,260.062,246.971,261.169z M311.652,303.986
		c1.666-0.165,3.364-0.257,5.094-0.257s3.428,0.093,5.094,0.257c-1.677-0.163-3.374-0.257-5.094-0.257
		S313.329,303.823,311.652,303.986z M420.475,306.904c-0.212,0.077-0.423,0.153-0.634,0.232L420.475,306.904z M412.21,310.747
		c-0.155,0.089-0.305,0.187-0.459,0.279C411.906,310.934,412.055,310.837,412.21,310.747L412.21,310.747z M393.546,329.18
		c-0.123,0.206-0.253,0.407-0.373,0.615C393.293,329.587,393.423,329.387,393.546,329.18z M389.654,337.189
		c-0.128,0.334-0.248,0.671-0.369,1.008C389.407,337.859,389.525,337.523,389.654,337.189L389.654,337.189z M387.102,346.115
		c-0.061,0.327-0.095,0.664-0.151,0.994C387.007,346.778,387.041,346.443,387.102,346.115L387.102,346.115z"/>
	<g>
		<path style="fill:#2FA8CC;" d="M429.559,208.271c-2.302,0.001-4.509-0.913-6.137-2.541c-1.628-1.628-2.542-3.835-2.541-6.137
			v-95.458c0-4.793,3.885-8.678,8.678-8.678s8.678,3.885,8.678,8.678v95.458c0.001,2.302-0.913,4.509-2.541,6.137
			C434.069,207.358,431.861,208.272,429.559,208.271z"/>
		<path style="fill:#2FA8CC;" d="M455.593,138.847c-2.302,0.003-4.51-0.912-6.135-2.543l-19.899-19.898l-19.899,19.899
			c-3.395,3.352-8.859,3.335-12.232-0.039c-3.373-3.374-3.391-8.838-0.038-12.232L423.424,98c1.627-1.628,3.834-2.542,6.136-2.542
			c2.301,0,4.509,0.915,6.136,2.542l26.034,26.034c2.481,2.482,3.223,6.214,1.88,9.456
			C462.266,136.733,459.103,138.847,455.593,138.847z"/>
	</g>
	<g>
		<path style="fill:#7F6E5D;" d="M143.186,355.797c-0.02,2.616,0.183,5.229,0.607,7.81c-6.136,1.158-12.435,1.158-18.571,0
			c0.424-2.581,0.628-5.194,0.607-7.81c-0.026-25.159-18.029-46.704-42.782-51.2c3.851-25.447,25.724-44.258,51.46-44.258
			s47.609,18.811,51.46,44.258C161.215,309.093,143.212,330.638,143.186,355.797z"/>
		<path style="fill:#7F6E5D;" d="M368.814,355.797c0.02,2.616-0.183,5.229-0.607,7.81c6.136,1.158,12.435,1.158,18.571,0
			c-0.424-2.581-0.628-5.194-0.607-7.81c0.026-25.159,18.029-46.704,42.782-51.2c-3.851-25.447-25.724-44.258-51.46-44.258
			c-25.737,0-47.609,18.811-51.46,44.258C350.785,309.093,368.788,330.638,368.814,355.797z"/>
		<path style="fill:#7F6E5D;" d="M247.322,355.797c0.02,2.616-0.183,5.229-0.607,7.81c6.136,1.158,12.435,1.158,18.571,0
			c-0.424-2.581-0.628-5.194-0.607-7.81c0.026-25.159,18.029-46.704,42.782-51.2c-3.851-25.447-25.724-44.258-51.46-44.258
			s-47.609,18.811-51.46,44.258C229.293,309.093,247.296,330.638,247.322,355.797z"/>
	</g>
	<g>
		<path style="fill:#7F5B53;" d="M246.715,261.207c-21.88,3.977-38.821,21.406-42.175,43.39c-6.136-1.157-12.435-1.157-18.571,0
			c-3.354-21.984-20.295-39.413-42.175-43.39c3.851-25.447,25.724-44.258,51.46-44.258S242.863,235.76,246.715,261.207z"/>
		<path style="fill:#7F5B53;" d="M265.285,261.207c21.88,3.977,38.821,21.406,42.175,43.39c6.136-1.157,12.435-1.157,18.571,0
			c3.354-21.984,20.295-39.413,42.175-43.39c-3.851-25.447-25.724-44.258-51.46-44.258S269.137,235.76,265.285,261.207z"/>
	</g>
	<path style="fill:#59474E;" d="M204.54,217.817c21.88,3.977,38.821,21.406,42.175,43.39c6.136-1.157,12.435-1.157,18.571,0
		c3.354-21.984,20.295-39.413,42.175-43.39c-3.851-25.447-25.724-44.258-51.46-44.258S208.391,192.37,204.54,217.817z"/>
</g>
<g>
</g>
<g>
</g>
<g>
</g>
<g>
</g>
<g>
</g>
<g>
</g>
<g>
</g>
<g>
</g>
<g>
</g>
<g>
</g>
<g>
</g>
<g>
</g>
<g>
</g>
<g>
</g>
<g>
</g>
</svg>
