<?xml version="1.0" encoding="iso-8859-1"?>
<!-- Generator: Adobe Illustrator 19.0.0, SVG Export Plug-In . SVG Version: 6.00 Build 0)  -->
<svg version="1.1" id="Capa_1" xmlns="http://www.w3.org/2000/svg" xmlns:xlink="http://www.w3.org/1999/xlink" x="0px" y="0px"
	 viewBox="0 0 512 512" style="enable-background:new 0 0 512 512;" xml:space="preserve">
<g>
	<g>
		<path style="fill:#2C3E50;" d="M386.169,373.153h-26.034c-4.793,0-8.678-3.885-8.678-8.678s3.885-8.678,8.678-8.678h26.034
			c4.791-0.005,8.673-3.887,8.678-8.678V208.271c0-4.793,3.885-8.678,8.678-8.678s8.678,3.885,8.678,8.678v138.847
			C412.188,361.49,400.541,373.137,386.169,373.153z"/>
		<path style="fill:#2C3E50;" d="M299.39,112.814h-86.78c-4.793,0-8.678-3.885-8.678-8.678c0-4.793,3.885-8.678,8.678-8.678h86.78
			c4.793,0,8.678,3.885,8.678,8.678C308.068,108.928,304.183,112.814,299.39,112.814z"/>
	</g>
	<path style="fill:#A5A5A4;" d="M507.661,115.899V92.372c0-3.089-2.504-5.593-5.593-5.593h-9.116
		c-2.564-0.025-4.781-1.793-5.376-4.287c-2.035-7.892-5.179-15.455-9.338-22.464c-1.345-2.186-1.025-5.007,0.775-6.835l6.465-6.466
		c2.184-2.184,2.184-5.725,0-7.909l-16.636-16.636c-1.049-1.049-2.471-1.638-3.955-1.638s-2.906,0.589-3.955,1.638l-6.466,6.466
		c-1.829,1.8-4.65,2.12-6.836,0.775c-7.009-4.159-14.572-7.303-22.463-9.339c-2.494-0.595-4.262-2.812-4.287-5.376V5.593
		c0-3.089-2.504-5.593-5.593-5.593h-23.526c-3.089,0-5.593,2.504-5.593,5.593v9.116c-0.025,2.564-1.793,4.781-4.287,5.376
		c-7.892,2.035-15.455,5.179-22.463,9.338c-2.186,1.345-5.007,1.025-6.836-0.775l-6.466-6.466c-1.049-1.049-2.471-1.638-3.955-1.638
		s-2.906,0.589-3.955,1.638l-16.636,16.636c-2.184,2.184-2.184,5.725,0,7.909l6.465,6.466c1.8,1.829,2.12,4.65,0.775,6.835
		c-4.159,7.009-7.303,14.572-9.338,22.464c-0.595,2.494-2.812,4.262-5.376,4.287h-9.116c-1.483,0-2.906,0.589-3.955,1.638
		c-1.049,1.049-1.638,2.471-1.638,3.955v23.526c0,3.089,2.504,5.593,5.593,5.593h9.116c2.564,0.025,4.781,1.793,5.376,4.287
		c2.035,7.892,5.179,15.455,9.338,22.463c1.345,2.186,1.025,5.007-0.775,6.836l-6.465,6.466c-2.184,2.184-2.184,5.725,0,7.909
		l16.636,16.636c1.049,1.049,2.471,1.638,3.955,1.638s2.906-0.589,3.955-1.638l6.466-6.466c1.829-1.8,4.65-2.12,6.836-0.775
		c7.009,4.159,14.572,7.304,22.463,9.339c2.494,0.595,4.262,2.812,4.287,5.376v9.116c0,1.483,0.589,2.906,1.638,3.955
		c1.049,1.049,2.471,1.638,3.955,1.638h23.526c3.089,0,5.593-2.504,5.593-5.593v-9.116c0.025-2.564,1.793-4.781,4.287-5.376
		c7.892-2.035,15.455-5.18,22.463-9.339c2.186-1.345,5.007-1.025,6.836,0.775l6.466,6.466c1.049,1.049,2.471,1.638,3.955,1.638
		s2.906-0.589,3.955-1.638l16.636-16.636c2.184-2.184,2.184-5.725,0-7.909l-6.465-6.466c-1.8-1.829-2.12-4.65-0.775-6.836
		c4.159-7.009,7.303-14.572,9.338-22.464c0.595-2.494,2.812-4.262,5.376-4.287h9.117
		C505.157,121.491,507.661,118.987,507.661,115.899z"/>
	<path style="fill:#2C3E50;" d="M151.864,373.153h-26.034c-14.372-0.016-26.018-11.662-26.034-26.034V208.271
		c0-4.793,3.885-8.678,8.678-8.678c4.793,0,8.678,3.885,8.678,8.678v138.847c0.005,4.791,3.887,8.673,8.678,8.678h26.034
		c4.793,0,8.678,3.885,8.678,8.678S156.657,373.153,151.864,373.153z"/>
	<path style="fill:#A5A5A4;" d="M290.712,512h-69.424c-4.793,0-8.678-3.885-8.678-8.678c0-4.793,3.885-8.678,8.678-8.678h69.424
		c4.793,0,8.678,3.885,8.678,8.678C299.39,508.115,295.505,512,290.712,512z"/>
	<path style="fill:#F0C419;" d="M325.424,364.475c0.042-31.253-20.802-58.683-50.925-67.013c-30.123-8.33-62.099,4.492-78.12,31.327
		c-16.022,26.834-12.14,61.066,9.484,83.631c9.955,10.47,15.481,24.381,15.425,38.828v0.007c0,9.585,7.771,17.356,17.356,17.356
		h34.712c9.585,0,17.356-7.771,17.356-17.356c-0.134-14.339,5.306-28.17,15.174-38.574
		C318.434,399.773,325.445,382.476,325.424,364.475z"/>
	<circle style="fill:#D1D4D1;" cx="403.525" cy="104.136" r="52.068"/>
	<circle style="fill:#2C3E50;" cx="403.525" cy="104.136" r="8.678"/>
	<circle style="fill:#556080;" cx="108.475" cy="104.136" r="104.136"/>
	<circle style="fill:#B0D3F0;" cx="108.475" cy="104.136" r="69.424"/>
	<path style="fill:#2C3E50;" d="M125.831,130.169c-2.302,0.003-4.51-0.912-6.135-2.543l-17.356-17.356
		c-1.627-1.627-2.542-3.834-2.543-6.135V69.424c0-4.793,3.885-8.678,8.678-8.678c4.793,0,8.678,3.885,8.678,8.678v31.119
		l14.813,14.813c2.481,2.482,3.224,6.214,1.881,9.456C132.504,128.055,129.34,130.169,125.831,130.169z"/>
	<g>
		<path style="fill:#F3D55B;" d="M256,269.017c-2.302,0.001-4.509-0.913-6.137-2.541c-1.628-1.628-2.542-3.835-2.541-6.137v-26.034
			c0-4.793,3.885-8.678,8.678-8.678c4.793,0,8.678,3.885,8.678,8.678v26.034c0.001,2.302-0.914,4.509-2.541,6.137
			C260.509,268.103,258.302,269.018,256,269.017z"/>
		<path style="fill:#F3D55B;" d="M182.364,299.517c-2.302,0.003-4.51-0.912-6.135-2.543l-18.407-18.407
			c-2.198-2.191-3.059-5.389-2.258-8.387c0.802-2.998,3.143-5.34,6.142-6.142c2.998-0.802,6.196,0.059,8.387,2.258l18.407,18.407
			c2.481,2.482,3.223,6.214,1.88,9.456C189.038,297.401,185.874,299.516,182.364,299.517L182.364,299.517z"/>
		<path style="fill:#F3D55B;" d="M329.636,299.517c-3.509-0.001-6.673-2.115-8.016-5.357s-0.601-6.974,1.88-9.456l18.407-18.407
			c3.39-3.379,8.876-3.374,12.261,0.011c3.384,3.384,3.389,8.87,0.011,12.261l-18.407,18.407
			C334.146,298.605,331.938,299.52,329.636,299.517z"/>
		<path style="fill:#F3D55B;" d="M163.958,465.195c-3.509-0.001-6.673-2.115-8.016-5.357c-1.343-3.242-0.601-6.974,1.88-9.456
			l18.407-18.407c2.192-2.192,5.387-3.048,8.381-2.246c2.994,0.802,5.333,3.141,6.136,6.136c0.802,2.994-0.054,6.189-2.246,8.381
			l-18.407,18.407C168.468,464.283,166.26,465.198,163.958,465.195z"/>
		<path style="fill:#F3D55B;" d="M348.042,465.195c-2.302,0.003-4.51-0.913-6.135-2.543L323.5,444.245
			c-2.192-2.192-3.048-5.387-2.246-8.381c0.802-2.994,3.141-5.333,6.136-6.136c2.994-0.802,6.189,0.054,8.381,2.246l18.407,18.407
			c2.481,2.482,3.223,6.214,1.88,9.456C354.716,463.079,351.552,465.194,348.042,465.195L348.042,465.195z"/>
	</g>
</g>
<g>
</g>
<g>
</g>
<g>
</g>
<g>
</g>
<g>
</g>
<g>
</g>
<g>
</g>
<g>
</g>
<g>
</g>
<g>
</g>
<g>
</g>
<g>
</g>
<g>
</g>
<g>
</g>
<g>
</g>
</svg>
