<svg height="512" viewBox="0 0 512 512" width="512" xmlns="http://www.w3.org/2000/svg"><g id="Flat"><rect fill="#379ec3" height="464" rx="32" width="256" x="80" y="24"/><path d="m312 56v400a8.0107 8.0107 0 0 1 -8 8h-192a8.0107 8.0107 0 0 1 -8-8v-400a8.01066 8.01066 0 0 1 8-8h80a16 16 0 0 0 32 0h80a8.01066 8.01066 0 0 1 8 8z" fill="#8acce7"/><path d="m272 208h-32v16h12.686l-32.686 32.68652-22.34277-22.34326a8.00122 8.00122 0 0 0 -11.31446 0l-64 64 11.31446 11.31348 58.34277-58.34326 22.34277 22.34326a8.00122 8.00122 0 0 0 11.31446 0l38.34277-38.34274v12.686h16v-32a8.00008 8.00008 0 0 0 -8-8z" fill="#4ba477"/><path d="m144 344h32v32h-32z" fill="#d14547"/><path d="m176 304h32v72h-32z" fill="#eebe33"/><path d="m208 328h32v48h-32z" fill="#e88604"/><path d="m240 280h32v96h-32z" fill="#4ba477"/><path d="m120 368h176v16h-176z" fill="#395166"/><path d="m128 400h64v40h-64z" fill="#d14547"/><path d="m224 400h64v40h-64z" fill="#4ba477"/><path d="m424 104h-9.60352a79.52846 79.52846 0 0 0 -11.66113-28.10791l6.80371-6.80377a8.00031 8.00031 0 0 0 0-11.31372l-11.31347-11.31372a8.00029 8.00029 0 0 0 -11.314 0l-6.80371 6.80383a79.52632 79.52632 0 0 0 -28.10788-11.66132v-9.60339a7.99989 7.99989 0 0 0 -8-8h-16a7.99989 7.99989 0 0 0 -8 8v9.60339a79.52632 79.52632 0 0 0 -28.10791 11.66132l-6.80371-6.80383a8.00029 8.00029 0 0 0 -11.314 0l-11.31344 11.31372a8.00031 8.00031 0 0 0 0 11.31372l6.80371 6.80377a79.52846 79.52846 0 0 0 -11.66113 28.10791h-9.60352a7.99989 7.99989 0 0 0 -8 8v16a7.99989 7.99989 0 0 0 8 8h9.60352a79.52817 79.52817 0 0 0 11.66113 28.10785l-6.80371 6.80383a8.00031 8.00031 0 0 0 0 11.31372l11.31347 11.31366a8.00029 8.00029 0 0 0 11.314 0l6.80371-6.80377a79.52632 79.52632 0 0 0 28.10788 11.66132v9.60339a7.99989 7.99989 0 0 0 8 8h16a7.99989 7.99989 0 0 0 8-8v-9.60339a79.52632 79.52632 0 0 0 28.10791-11.66132l6.80371 6.80377a8.00029 8.00029 0 0 0 11.314 0l11.31347-11.31366a8.00031 8.00031 0 0 0 0-11.31372l-6.80371-6.80383a79.52817 79.52817 0 0 0 11.6611-28.10785h9.60352a7.99989 7.99989 0 0 0 8-8v-16a7.99989 7.99989 0 0 0 -8-8z" fill="#396795"/><circle cx="336" cy="120" fill="#eedc9a" r="56"/><path d="m336 184a64 64 0 1 1 64-64 64.07239 64.07239 0 0 1 -64 64zm0-112a48 48 0 1 0 48 48 48.05405 48.05405 0 0 0 -48-48z" fill="#eebe33"/><path d="m333.65723 106.34326a3.31352 3.31352 0 1 1 4.68554-4.68652l8 8 11.31446-11.31348-8-8a19.28971 19.28971 0 0 0 -5.65723-3.91052v-6.43274h-16v6.43274a19.2878 19.2878 0 0 0 -5.65723 31.224l16 16a3.31352 3.31352 0 1 1 -4.68554 4.68652l-8-8-11.31446 11.31348 8 8a19.28971 19.28971 0 0 0 5.65723 3.91052v6.43274h16v-6.43274a19.2878 19.2878 0 0 0 5.65723-31.224z" fill="#e88604"/></g></svg>